<mxfile host="app.diagrams.net" modified="2021-09-23T03:05:43.726Z" agent="5.0 (Windows NT 10.0; Win64; x64) AppleWebKit/537.36 (KHTML, like Gecko) Chrome/93.0.4577.82 Safari/537.36" etag="-oZi_HFgbGZnmfMUE53a" version="15.2.9" type="github">
  <diagram id="U9qS648LNUdXtWwY6QcD" name="Page-1">
    <mxGraphModel dx="1038" dy="547" grid="0" gridSize="17" guides="1" tooltips="1" connect="1" arrows="1" fold="1" page="1" pageScale="1" pageWidth="827" pageHeight="1169" math="0" shadow="0">
      <root>
        <mxCell id="0" />
        <mxCell id="1" parent="0" />
        <mxCell id="KkrfMwuoCl2bvRBsmuHm-3" value="" style="rounded=0;whiteSpace=wrap;html=1;fillColor=none;strokeWidth=9;strokeColor=#EA6B66;" parent="1" vertex="1">
          <mxGeometry x="306" y="170" width="476" height="340" as="geometry" />
        </mxCell>
        <mxCell id="KkrfMwuoCl2bvRBsmuHm-4" value="" style="rounded=0;whiteSpace=wrap;html=1;fillColor=none;strokeWidth=9;strokeColor=#FFD966;" parent="1" vertex="1">
          <mxGeometry x="374" y="238" width="340" height="204" as="geometry" />
        </mxCell>
        <mxCell id="KkrfMwuoCl2bvRBsmuHm-5" value="" style="rounded=0;whiteSpace=wrap;html=1;fillColor=none;strokeWidth=9;strokeColor=#B9E0A5;" parent="1" vertex="1">
          <mxGeometry x="442" y="306" width="204" height="68" as="geometry" />
        </mxCell>
        <mxCell id="KkrfMwuoCl2bvRBsmuHm-6" value="" style="html=1;shadow=0;dashed=0;align=center;verticalAlign=middle;shape=mxgraph.arrows2.arrow;dy=0.6;dx=40;notch=0;strokeWidth=9;fillColor=none;strokeColor=#EA6B66;" parent="1" vertex="1">
          <mxGeometry x="476" y="119" width="153" height="34" as="geometry" />
        </mxCell>
        <mxCell id="KkrfMwuoCl2bvRBsmuHm-7" value="" style="html=1;shadow=0;dashed=0;align=center;verticalAlign=middle;shape=mxgraph.arrows2.arrow;dy=0.6;dx=40;notch=0;strokeWidth=9;fillColor=none;strokeColor=#EA6B66;rotation=90;" parent="1" vertex="1">
          <mxGeometry x="748" y="323" width="153" height="34" as="geometry" />
        </mxCell>
        <mxCell id="KkrfMwuoCl2bvRBsmuHm-8" value="" style="html=1;shadow=0;dashed=0;align=center;verticalAlign=middle;shape=mxgraph.arrows2.arrow;dy=0.6;dx=40;notch=0;strokeWidth=9;fillColor=none;strokeColor=#EA6B66;rotation=90;direction=south;" parent="1" vertex="1">
          <mxGeometry x="527" y="476" width="34" height="153" as="geometry" />
        </mxCell>
        <mxCell id="KkrfMwuoCl2bvRBsmuHm-9" value="" style="html=1;shadow=0;dashed=0;align=center;verticalAlign=middle;shape=mxgraph.arrows2.arrow;dy=0.6;dx=40;notch=0;strokeWidth=9;fillColor=none;strokeColor=#EA6B66;rotation=-180;direction=south;" parent="1" vertex="1">
          <mxGeometry x="221" y="261" width="34" height="153" as="geometry" />
        </mxCell>
        <mxCell id="KkrfMwuoCl2bvRBsmuHm-11" value="" style="shape=table;html=1;whiteSpace=wrap;startSize=0;container=1;collapsible=0;childLayout=tableLayout;strokeWidth=2;fillColor=none;strokeColor=#001933;" parent="1" vertex="1">
          <mxGeometry x="155" y="1220" width="232" height="194" as="geometry" />
        </mxCell>
        <mxCell id="KkrfMwuoCl2bvRBsmuHm-12" value="" style="shape=partialRectangle;html=1;whiteSpace=wrap;collapsible=0;dropTarget=0;pointerEvents=0;fillColor=none;top=0;left=0;bottom=0;right=0;points=[[0,0.5],[1,0.5]];portConstraint=eastwest;" parent="KkrfMwuoCl2bvRBsmuHm-11" vertex="1">
          <mxGeometry width="232" height="65" as="geometry" />
        </mxCell>
        <mxCell id="KkrfMwuoCl2bvRBsmuHm-13" value="" style="shape=partialRectangle;html=1;whiteSpace=wrap;connectable=0;fillColor=none;top=0;left=0;bottom=0;right=0;overflow=hidden;pointerEvents=1;" parent="KkrfMwuoCl2bvRBsmuHm-12" vertex="1">
          <mxGeometry width="77" height="65" as="geometry" />
        </mxCell>
        <mxCell id="KkrfMwuoCl2bvRBsmuHm-14" value="" style="shape=partialRectangle;html=1;whiteSpace=wrap;connectable=0;fillColor=none;top=0;left=0;bottom=0;right=0;overflow=hidden;pointerEvents=1;" parent="KkrfMwuoCl2bvRBsmuHm-12" vertex="1">
          <mxGeometry x="77" width="78" height="65" as="geometry" />
        </mxCell>
        <mxCell id="KkrfMwuoCl2bvRBsmuHm-15" value="" style="shape=partialRectangle;html=1;whiteSpace=wrap;connectable=0;fillColor=none;top=0;left=0;bottom=0;right=0;overflow=hidden;pointerEvents=1;" parent="KkrfMwuoCl2bvRBsmuHm-12" vertex="1">
          <mxGeometry x="155" width="77" height="65" as="geometry" />
        </mxCell>
        <mxCell id="KkrfMwuoCl2bvRBsmuHm-16" value="" style="shape=partialRectangle;html=1;whiteSpace=wrap;collapsible=0;dropTarget=0;pointerEvents=0;fillColor=none;top=0;left=0;bottom=0;right=0;points=[[0,0.5],[1,0.5]];portConstraint=eastwest;" parent="KkrfMwuoCl2bvRBsmuHm-11" vertex="1">
          <mxGeometry y="65" width="232" height="64" as="geometry" />
        </mxCell>
        <mxCell id="KkrfMwuoCl2bvRBsmuHm-17" value="" style="shape=partialRectangle;html=1;whiteSpace=wrap;connectable=0;fillColor=none;top=0;left=0;bottom=0;right=0;overflow=hidden;pointerEvents=1;" parent="KkrfMwuoCl2bvRBsmuHm-16" vertex="1">
          <mxGeometry width="77" height="64" as="geometry" />
        </mxCell>
        <mxCell id="KkrfMwuoCl2bvRBsmuHm-18" value="" style="shape=partialRectangle;html=1;whiteSpace=wrap;connectable=0;fillColor=none;top=0;left=0;bottom=0;right=0;overflow=hidden;pointerEvents=1;" parent="KkrfMwuoCl2bvRBsmuHm-16" vertex="1">
          <mxGeometry x="77" width="78" height="64" as="geometry" />
        </mxCell>
        <mxCell id="KkrfMwuoCl2bvRBsmuHm-19" value="" style="shape=partialRectangle;html=1;whiteSpace=wrap;connectable=0;fillColor=none;top=0;left=0;bottom=0;right=0;overflow=hidden;pointerEvents=1;" parent="KkrfMwuoCl2bvRBsmuHm-16" vertex="1">
          <mxGeometry x="155" width="77" height="64" as="geometry" />
        </mxCell>
        <mxCell id="KkrfMwuoCl2bvRBsmuHm-20" value="" style="shape=partialRectangle;html=1;whiteSpace=wrap;collapsible=0;dropTarget=0;pointerEvents=0;fillColor=none;top=0;left=0;bottom=0;right=0;points=[[0,0.5],[1,0.5]];portConstraint=eastwest;" parent="KkrfMwuoCl2bvRBsmuHm-11" vertex="1">
          <mxGeometry y="129" width="232" height="65" as="geometry" />
        </mxCell>
        <mxCell id="KkrfMwuoCl2bvRBsmuHm-21" value="" style="shape=partialRectangle;html=1;whiteSpace=wrap;connectable=0;fillColor=none;top=0;left=0;bottom=0;right=0;overflow=hidden;pointerEvents=1;" parent="KkrfMwuoCl2bvRBsmuHm-20" vertex="1">
          <mxGeometry width="77" height="65" as="geometry" />
        </mxCell>
        <mxCell id="KkrfMwuoCl2bvRBsmuHm-22" value="" style="shape=partialRectangle;html=1;whiteSpace=wrap;connectable=0;fillColor=none;top=0;left=0;bottom=0;right=0;overflow=hidden;pointerEvents=1;" parent="KkrfMwuoCl2bvRBsmuHm-20" vertex="1">
          <mxGeometry x="77" width="78" height="65" as="geometry" />
        </mxCell>
        <mxCell id="KkrfMwuoCl2bvRBsmuHm-23" value="" style="shape=partialRectangle;html=1;whiteSpace=wrap;connectable=0;fillColor=none;top=0;left=0;bottom=0;right=0;overflow=hidden;pointerEvents=1;" parent="KkrfMwuoCl2bvRBsmuHm-20" vertex="1">
          <mxGeometry x="155" width="77" height="65" as="geometry" />
        </mxCell>
        <mxCell id="KkrfMwuoCl2bvRBsmuHm-24" value="" style="shape=table;html=1;whiteSpace=wrap;startSize=0;container=1;collapsible=0;childLayout=tableLayout;strokeWidth=2;fillColor=none;strokeColor=#001933;" parent="1" vertex="1">
          <mxGeometry x="387" y="1220" width="232" height="194" as="geometry" />
        </mxCell>
        <mxCell id="KkrfMwuoCl2bvRBsmuHm-25" value="" style="shape=partialRectangle;html=1;whiteSpace=wrap;collapsible=0;dropTarget=0;pointerEvents=0;fillColor=none;top=0;left=0;bottom=0;right=0;points=[[0,0.5],[1,0.5]];portConstraint=eastwest;" parent="KkrfMwuoCl2bvRBsmuHm-24" vertex="1">
          <mxGeometry width="232" height="65" as="geometry" />
        </mxCell>
        <mxCell id="KkrfMwuoCl2bvRBsmuHm-26" value="" style="shape=partialRectangle;html=1;whiteSpace=wrap;connectable=0;fillColor=none;top=0;left=0;bottom=0;right=0;overflow=hidden;pointerEvents=1;" parent="KkrfMwuoCl2bvRBsmuHm-25" vertex="1">
          <mxGeometry width="77" height="65" as="geometry" />
        </mxCell>
        <mxCell id="KkrfMwuoCl2bvRBsmuHm-27" value="" style="shape=partialRectangle;html=1;whiteSpace=wrap;connectable=0;fillColor=none;top=0;left=0;bottom=0;right=0;overflow=hidden;pointerEvents=1;" parent="KkrfMwuoCl2bvRBsmuHm-25" vertex="1">
          <mxGeometry x="77" width="78" height="65" as="geometry" />
        </mxCell>
        <mxCell id="KkrfMwuoCl2bvRBsmuHm-28" value="" style="shape=partialRectangle;html=1;whiteSpace=wrap;connectable=0;fillColor=none;top=0;left=0;bottom=0;right=0;overflow=hidden;pointerEvents=1;" parent="KkrfMwuoCl2bvRBsmuHm-25" vertex="1">
          <mxGeometry x="155" width="77" height="65" as="geometry" />
        </mxCell>
        <mxCell id="KkrfMwuoCl2bvRBsmuHm-29" value="" style="shape=partialRectangle;html=1;whiteSpace=wrap;collapsible=0;dropTarget=0;pointerEvents=0;fillColor=none;top=0;left=0;bottom=0;right=0;points=[[0,0.5],[1,0.5]];portConstraint=eastwest;" parent="KkrfMwuoCl2bvRBsmuHm-24" vertex="1">
          <mxGeometry y="65" width="232" height="64" as="geometry" />
        </mxCell>
        <mxCell id="KkrfMwuoCl2bvRBsmuHm-30" value="" style="shape=partialRectangle;html=1;whiteSpace=wrap;connectable=0;fillColor=none;top=0;left=0;bottom=0;right=0;overflow=hidden;pointerEvents=1;" parent="KkrfMwuoCl2bvRBsmuHm-29" vertex="1">
          <mxGeometry width="77" height="64" as="geometry" />
        </mxCell>
        <mxCell id="KkrfMwuoCl2bvRBsmuHm-31" value="" style="shape=partialRectangle;html=1;whiteSpace=wrap;connectable=0;fillColor=none;top=0;left=0;bottom=0;right=0;overflow=hidden;pointerEvents=1;" parent="KkrfMwuoCl2bvRBsmuHm-29" vertex="1">
          <mxGeometry x="77" width="78" height="64" as="geometry" />
        </mxCell>
        <mxCell id="KkrfMwuoCl2bvRBsmuHm-32" value="" style="shape=partialRectangle;html=1;whiteSpace=wrap;connectable=0;fillColor=none;top=0;left=0;bottom=0;right=0;overflow=hidden;pointerEvents=1;" parent="KkrfMwuoCl2bvRBsmuHm-29" vertex="1">
          <mxGeometry x="155" width="77" height="64" as="geometry" />
        </mxCell>
        <mxCell id="KkrfMwuoCl2bvRBsmuHm-33" value="" style="shape=partialRectangle;html=1;whiteSpace=wrap;collapsible=0;dropTarget=0;pointerEvents=0;fillColor=none;top=0;left=0;bottom=0;right=0;points=[[0,0.5],[1,0.5]];portConstraint=eastwest;" parent="KkrfMwuoCl2bvRBsmuHm-24" vertex="1">
          <mxGeometry y="129" width="232" height="65" as="geometry" />
        </mxCell>
        <mxCell id="KkrfMwuoCl2bvRBsmuHm-34" value="" style="shape=partialRectangle;html=1;whiteSpace=wrap;connectable=0;fillColor=none;top=0;left=0;bottom=0;right=0;overflow=hidden;pointerEvents=1;" parent="KkrfMwuoCl2bvRBsmuHm-33" vertex="1">
          <mxGeometry width="77" height="65" as="geometry" />
        </mxCell>
        <mxCell id="KkrfMwuoCl2bvRBsmuHm-35" value="" style="shape=partialRectangle;html=1;whiteSpace=wrap;connectable=0;fillColor=none;top=0;left=0;bottom=0;right=0;overflow=hidden;pointerEvents=1;" parent="KkrfMwuoCl2bvRBsmuHm-33" vertex="1">
          <mxGeometry x="77" width="78" height="65" as="geometry" />
        </mxCell>
        <mxCell id="KkrfMwuoCl2bvRBsmuHm-36" value="" style="shape=partialRectangle;html=1;whiteSpace=wrap;connectable=0;fillColor=none;top=0;left=0;bottom=0;right=0;overflow=hidden;pointerEvents=1;" parent="KkrfMwuoCl2bvRBsmuHm-33" vertex="1">
          <mxGeometry x="155" width="77" height="65" as="geometry" />
        </mxCell>
        <mxCell id="KkrfMwuoCl2bvRBsmuHm-37" value="" style="shape=table;html=1;whiteSpace=wrap;startSize=0;container=1;collapsible=0;childLayout=tableLayout;strokeWidth=2;fillColor=none;strokeColor=#001933;" parent="1" vertex="1">
          <mxGeometry x="155" y="1414" width="232" height="194" as="geometry" />
        </mxCell>
        <mxCell id="KkrfMwuoCl2bvRBsmuHm-38" value="" style="shape=partialRectangle;html=1;whiteSpace=wrap;collapsible=0;dropTarget=0;pointerEvents=0;fillColor=none;top=0;left=0;bottom=0;right=0;points=[[0,0.5],[1,0.5]];portConstraint=eastwest;" parent="KkrfMwuoCl2bvRBsmuHm-37" vertex="1">
          <mxGeometry width="232" height="65" as="geometry" />
        </mxCell>
        <mxCell id="KkrfMwuoCl2bvRBsmuHm-39" value="" style="shape=partialRectangle;html=1;whiteSpace=wrap;connectable=0;fillColor=none;top=0;left=0;bottom=0;right=0;overflow=hidden;pointerEvents=1;" parent="KkrfMwuoCl2bvRBsmuHm-38" vertex="1">
          <mxGeometry width="77" height="65" as="geometry" />
        </mxCell>
        <mxCell id="KkrfMwuoCl2bvRBsmuHm-40" value="" style="shape=partialRectangle;html=1;whiteSpace=wrap;connectable=0;fillColor=none;top=0;left=0;bottom=0;right=0;overflow=hidden;pointerEvents=1;" parent="KkrfMwuoCl2bvRBsmuHm-38" vertex="1">
          <mxGeometry x="77" width="78" height="65" as="geometry" />
        </mxCell>
        <mxCell id="KkrfMwuoCl2bvRBsmuHm-41" value="" style="shape=partialRectangle;html=1;whiteSpace=wrap;connectable=0;fillColor=none;top=0;left=0;bottom=0;right=0;overflow=hidden;pointerEvents=1;" parent="KkrfMwuoCl2bvRBsmuHm-38" vertex="1">
          <mxGeometry x="155" width="77" height="65" as="geometry" />
        </mxCell>
        <mxCell id="KkrfMwuoCl2bvRBsmuHm-42" value="" style="shape=partialRectangle;html=1;whiteSpace=wrap;collapsible=0;dropTarget=0;pointerEvents=0;fillColor=none;top=0;left=0;bottom=0;right=0;points=[[0,0.5],[1,0.5]];portConstraint=eastwest;" parent="KkrfMwuoCl2bvRBsmuHm-37" vertex="1">
          <mxGeometry y="65" width="232" height="64" as="geometry" />
        </mxCell>
        <mxCell id="KkrfMwuoCl2bvRBsmuHm-43" value="" style="shape=partialRectangle;html=1;whiteSpace=wrap;connectable=0;fillColor=none;top=0;left=0;bottom=0;right=0;overflow=hidden;pointerEvents=1;" parent="KkrfMwuoCl2bvRBsmuHm-42" vertex="1">
          <mxGeometry width="77" height="64" as="geometry" />
        </mxCell>
        <mxCell id="KkrfMwuoCl2bvRBsmuHm-44" value="" style="shape=partialRectangle;html=1;whiteSpace=wrap;connectable=0;fillColor=none;top=0;left=0;bottom=0;right=0;overflow=hidden;pointerEvents=1;" parent="KkrfMwuoCl2bvRBsmuHm-42" vertex="1">
          <mxGeometry x="77" width="78" height="64" as="geometry" />
        </mxCell>
        <mxCell id="KkrfMwuoCl2bvRBsmuHm-45" value="" style="shape=partialRectangle;html=1;whiteSpace=wrap;connectable=0;fillColor=none;top=0;left=0;bottom=0;right=0;overflow=hidden;pointerEvents=1;" parent="KkrfMwuoCl2bvRBsmuHm-42" vertex="1">
          <mxGeometry x="155" width="77" height="64" as="geometry" />
        </mxCell>
        <mxCell id="KkrfMwuoCl2bvRBsmuHm-46" value="" style="shape=partialRectangle;html=1;whiteSpace=wrap;collapsible=0;dropTarget=0;pointerEvents=0;fillColor=none;top=0;left=0;bottom=0;right=0;points=[[0,0.5],[1,0.5]];portConstraint=eastwest;" parent="KkrfMwuoCl2bvRBsmuHm-37" vertex="1">
          <mxGeometry y="129" width="232" height="65" as="geometry" />
        </mxCell>
        <mxCell id="KkrfMwuoCl2bvRBsmuHm-47" value="" style="shape=partialRectangle;html=1;whiteSpace=wrap;connectable=0;fillColor=none;top=0;left=0;bottom=0;right=0;overflow=hidden;pointerEvents=1;" parent="KkrfMwuoCl2bvRBsmuHm-46" vertex="1">
          <mxGeometry width="77" height="65" as="geometry" />
        </mxCell>
        <mxCell id="KkrfMwuoCl2bvRBsmuHm-48" value="" style="shape=partialRectangle;html=1;whiteSpace=wrap;connectable=0;fillColor=none;top=0;left=0;bottom=0;right=0;overflow=hidden;pointerEvents=1;" parent="KkrfMwuoCl2bvRBsmuHm-46" vertex="1">
          <mxGeometry x="77" width="78" height="65" as="geometry" />
        </mxCell>
        <mxCell id="KkrfMwuoCl2bvRBsmuHm-49" value="" style="shape=partialRectangle;html=1;whiteSpace=wrap;connectable=0;fillColor=none;top=0;left=0;bottom=0;right=0;overflow=hidden;pointerEvents=1;" parent="KkrfMwuoCl2bvRBsmuHm-46" vertex="1">
          <mxGeometry x="155" width="77" height="65" as="geometry" />
        </mxCell>
        <mxCell id="KkrfMwuoCl2bvRBsmuHm-50" value="" style="shape=table;html=1;whiteSpace=wrap;startSize=0;container=1;collapsible=0;childLayout=tableLayout;strokeWidth=2;fillColor=none;strokeColor=#001933;" parent="1" vertex="1">
          <mxGeometry x="387" y="1414" width="232" height="194" as="geometry" />
        </mxCell>
        <mxCell id="KkrfMwuoCl2bvRBsmuHm-51" value="" style="shape=partialRectangle;html=1;whiteSpace=wrap;collapsible=0;dropTarget=0;pointerEvents=0;fillColor=none;top=0;left=0;bottom=0;right=0;points=[[0,0.5],[1,0.5]];portConstraint=eastwest;" parent="KkrfMwuoCl2bvRBsmuHm-50" vertex="1">
          <mxGeometry width="232" height="65" as="geometry" />
        </mxCell>
        <mxCell id="KkrfMwuoCl2bvRBsmuHm-52" value="" style="shape=partialRectangle;html=1;whiteSpace=wrap;connectable=0;fillColor=none;top=0;left=0;bottom=0;right=0;overflow=hidden;pointerEvents=1;" parent="KkrfMwuoCl2bvRBsmuHm-51" vertex="1">
          <mxGeometry width="77" height="65" as="geometry" />
        </mxCell>
        <mxCell id="KkrfMwuoCl2bvRBsmuHm-53" value="" style="shape=partialRectangle;html=1;whiteSpace=wrap;connectable=0;fillColor=none;top=0;left=0;bottom=0;right=0;overflow=hidden;pointerEvents=1;" parent="KkrfMwuoCl2bvRBsmuHm-51" vertex="1">
          <mxGeometry x="77" width="78" height="65" as="geometry" />
        </mxCell>
        <mxCell id="KkrfMwuoCl2bvRBsmuHm-54" value="" style="shape=partialRectangle;html=1;whiteSpace=wrap;connectable=0;fillColor=none;top=0;left=0;bottom=0;right=0;overflow=hidden;pointerEvents=1;" parent="KkrfMwuoCl2bvRBsmuHm-51" vertex="1">
          <mxGeometry x="155" width="77" height="65" as="geometry" />
        </mxCell>
        <mxCell id="KkrfMwuoCl2bvRBsmuHm-55" value="" style="shape=partialRectangle;html=1;whiteSpace=wrap;collapsible=0;dropTarget=0;pointerEvents=0;fillColor=none;top=0;left=0;bottom=0;right=0;points=[[0,0.5],[1,0.5]];portConstraint=eastwest;" parent="KkrfMwuoCl2bvRBsmuHm-50" vertex="1">
          <mxGeometry y="65" width="232" height="64" as="geometry" />
        </mxCell>
        <mxCell id="KkrfMwuoCl2bvRBsmuHm-56" value="" style="shape=partialRectangle;html=1;whiteSpace=wrap;connectable=0;fillColor=none;top=0;left=0;bottom=0;right=0;overflow=hidden;pointerEvents=1;" parent="KkrfMwuoCl2bvRBsmuHm-55" vertex="1">
          <mxGeometry width="77" height="64" as="geometry" />
        </mxCell>
        <mxCell id="KkrfMwuoCl2bvRBsmuHm-57" value="" style="shape=partialRectangle;html=1;whiteSpace=wrap;connectable=0;fillColor=none;top=0;left=0;bottom=0;right=0;overflow=hidden;pointerEvents=1;" parent="KkrfMwuoCl2bvRBsmuHm-55" vertex="1">
          <mxGeometry x="77" width="78" height="64" as="geometry" />
        </mxCell>
        <mxCell id="KkrfMwuoCl2bvRBsmuHm-58" value="" style="shape=partialRectangle;html=1;whiteSpace=wrap;connectable=0;fillColor=none;top=0;left=0;bottom=0;right=0;overflow=hidden;pointerEvents=1;" parent="KkrfMwuoCl2bvRBsmuHm-55" vertex="1">
          <mxGeometry x="155" width="77" height="64" as="geometry" />
        </mxCell>
        <mxCell id="KkrfMwuoCl2bvRBsmuHm-59" value="" style="shape=partialRectangle;html=1;whiteSpace=wrap;collapsible=0;dropTarget=0;pointerEvents=0;fillColor=none;top=0;left=0;bottom=0;right=0;points=[[0,0.5],[1,0.5]];portConstraint=eastwest;" parent="KkrfMwuoCl2bvRBsmuHm-50" vertex="1">
          <mxGeometry y="129" width="232" height="65" as="geometry" />
        </mxCell>
        <mxCell id="KkrfMwuoCl2bvRBsmuHm-60" value="" style="shape=partialRectangle;html=1;whiteSpace=wrap;connectable=0;fillColor=none;top=0;left=0;bottom=0;right=0;overflow=hidden;pointerEvents=1;" parent="KkrfMwuoCl2bvRBsmuHm-59" vertex="1">
          <mxGeometry width="77" height="65" as="geometry" />
        </mxCell>
        <mxCell id="KkrfMwuoCl2bvRBsmuHm-61" value="" style="shape=partialRectangle;html=1;whiteSpace=wrap;connectable=0;fillColor=none;top=0;left=0;bottom=0;right=0;overflow=hidden;pointerEvents=1;" parent="KkrfMwuoCl2bvRBsmuHm-59" vertex="1">
          <mxGeometry x="77" width="78" height="65" as="geometry" />
        </mxCell>
        <mxCell id="KkrfMwuoCl2bvRBsmuHm-62" value="" style="shape=partialRectangle;html=1;whiteSpace=wrap;connectable=0;fillColor=none;top=0;left=0;bottom=0;right=0;overflow=hidden;pointerEvents=1;" parent="KkrfMwuoCl2bvRBsmuHm-59" vertex="1">
          <mxGeometry x="155" width="77" height="65" as="geometry" />
        </mxCell>
        <mxCell id="KkrfMwuoCl2bvRBsmuHm-63" value="" style="rounded=0;whiteSpace=wrap;html=1;fillColor=none;strokeWidth=9;strokeColor=#EA6B66;" parent="1" vertex="1">
          <mxGeometry x="189" y="1244" width="398" height="340" as="geometry" />
        </mxCell>
        <mxCell id="KkrfMwuoCl2bvRBsmuHm-64" value="" style="rounded=0;whiteSpace=wrap;html=1;strokeWidth=9;fillColor=none;strokeColor=#FFB570;" parent="1" vertex="1">
          <mxGeometry x="271" y="1305" width="245" height="213" as="geometry" />
        </mxCell>
        <mxCell id="KkrfMwuoCl2bvRBsmuHm-65" value="" style="rounded=0;whiteSpace=wrap;html=1;strokeWidth=9;strokeColor=#82b366;fillColor=none;" parent="1" vertex="1">
          <mxGeometry x="353" y="1379" width="79" height="78" as="geometry" />
        </mxCell>
        <mxCell id="KkrfMwuoCl2bvRBsmuHm-66" value="" style="endArrow=classic;html=1;strokeColor=#EA6B66;strokeWidth=7;" parent="1" edge="1">
          <mxGeometry width="50" height="50" relative="1" as="geometry">
            <mxPoint x="318" y="1203" as="sourcePoint" />
            <mxPoint x="487" y="1203" as="targetPoint" />
          </mxGeometry>
        </mxCell>
        <mxCell id="KkrfMwuoCl2bvRBsmuHm-68" value="" style="endArrow=classic;html=1;strokeColor=#EA6B66;strokeWidth=7;" parent="1" edge="1">
          <mxGeometry width="50" height="50" relative="1" as="geometry">
            <mxPoint x="641" y="1297" as="sourcePoint" />
            <mxPoint x="641" y="1531" as="targetPoint" />
          </mxGeometry>
        </mxCell>
        <mxCell id="KplKHyqBT0ppSrYQ8UM7-11" style="edgeStyle=none;rounded=0;orthogonalLoop=1;jettySize=auto;html=1;exitX=0.5;exitY=1;exitDx=0;exitDy=0;entryX=0.5;entryY=0;entryDx=0;entryDy=0;" parent="1" source="KplKHyqBT0ppSrYQ8UM7-1" target="KplKHyqBT0ppSrYQ8UM7-4" edge="1">
          <mxGeometry relative="1" as="geometry" />
        </mxCell>
        <mxCell id="KplKHyqBT0ppSrYQ8UM7-1" value="1" style="text;html=1;strokeColor=none;fillColor=none;align=center;verticalAlign=middle;whiteSpace=wrap;rounded=0;" parent="1" vertex="1">
          <mxGeometry x="155" y="2046" width="40" height="20" as="geometry" />
        </mxCell>
        <mxCell id="KplKHyqBT0ppSrYQ8UM7-2" value="" style="endArrow=classic;html=1;exitX=0.5;exitY=1;exitDx=0;exitDy=0;entryX=0.5;entryY=0;entryDx=0;entryDy=0;" parent="1" source="KplKHyqBT0ppSrYQ8UM7-1" target="KplKHyqBT0ppSrYQ8UM7-3" edge="1">
          <mxGeometry width="50" height="50" relative="1" as="geometry">
            <mxPoint x="403" y="2305" as="sourcePoint" />
            <mxPoint x="152" y="2104" as="targetPoint" />
          </mxGeometry>
        </mxCell>
        <mxCell id="KplKHyqBT0ppSrYQ8UM7-9" style="rounded=0;orthogonalLoop=1;jettySize=auto;html=1;exitX=0.5;exitY=1;exitDx=0;exitDy=0;entryX=0.5;entryY=0;entryDx=0;entryDy=0;" parent="1" source="KplKHyqBT0ppSrYQ8UM7-3" target="KplKHyqBT0ppSrYQ8UM7-5" edge="1">
          <mxGeometry relative="1" as="geometry" />
        </mxCell>
        <mxCell id="KplKHyqBT0ppSrYQ8UM7-12" style="edgeStyle=none;rounded=0;orthogonalLoop=1;jettySize=auto;html=1;exitX=0.5;exitY=1;exitDx=0;exitDy=0;entryX=0.5;entryY=0;entryDx=0;entryDy=0;" parent="1" source="KplKHyqBT0ppSrYQ8UM7-3" target="KplKHyqBT0ppSrYQ8UM7-6" edge="1">
          <mxGeometry relative="1" as="geometry" />
        </mxCell>
        <mxCell id="KplKHyqBT0ppSrYQ8UM7-3" value="2" style="text;html=1;strokeColor=none;fillColor=none;align=center;verticalAlign=middle;whiteSpace=wrap;rounded=0;" parent="1" vertex="1">
          <mxGeometry x="102" y="2104" width="40" height="20" as="geometry" />
        </mxCell>
        <mxCell id="KplKHyqBT0ppSrYQ8UM7-4" value="3" style="text;html=1;strokeColor=none;fillColor=none;align=center;verticalAlign=middle;whiteSpace=wrap;rounded=0;" parent="1" vertex="1">
          <mxGeometry x="191" y="2104" width="40" height="20" as="geometry" />
        </mxCell>
        <mxCell id="KplKHyqBT0ppSrYQ8UM7-34" style="edgeStyle=none;rounded=0;orthogonalLoop=1;jettySize=auto;html=1;exitX=0.5;exitY=1;exitDx=0;exitDy=0;entryX=0.5;entryY=0;entryDx=0;entryDy=0;" parent="1" source="KplKHyqBT0ppSrYQ8UM7-5" target="KplKHyqBT0ppSrYQ8UM7-33" edge="1">
          <mxGeometry relative="1" as="geometry" />
        </mxCell>
        <mxCell id="KplKHyqBT0ppSrYQ8UM7-5" value="4&lt;span style=&quot;color: rgba(0 , 0 , 0 , 0) ; font-family: monospace ; font-size: 0px&quot;&gt;%3CmxGraphModel%3E%3Croot%3E%3CmxCell%20id%3D%220%22%2F%3E%3CmxCell%20id%3D%221%22%20parent%3D%220%22%2F%3E%3CmxCell%20id%3D%222%22%20value%3D%222%22%20style%3D%22text%3Bhtml%3D1%3BstrokeColor%3Dnone%3BfillColor%3Dnone%3Balign%3Dcenter%3BverticalAlign%3Dmiddle%3BwhiteSpace%3Dwrap%3Brounded%3D0%3B%22%20vertex%3D%221%22%20parent%3D%221%22%3E%3CmxGeometry%20x%3D%22244%22%20y%3D%222236%22%20width%3D%2240%22%20height%3D%2220%22%20as%3D%22geometry%22%2F%3E%3C%2FmxCell%3E%3C%2Froot%3E%3C%2FmxGraphModel%3E&lt;/span&gt;&lt;span style=&quot;color: rgba(0 , 0 , 0 , 0) ; font-family: monospace ; font-size: 0px&quot;&gt;%3CmxGraphModel%3E%3Croot%3E%3CmxCell%20id%3D%220%22%2F%3E%3CmxCell%20id%3D%221%22%20parent%3D%220%22%2F%3E%3CmxCell%20id%3D%222%22%20value%3D%222%22%20style%3D%22text%3Bhtml%3D1%3BstrokeColor%3Dnone%3BfillColor%3Dnone%3Balign%3Dcenter%3BverticalAlign%3Dmiddle%3BwhiteSpace%3Dwrap%3Brounded%3D0%3B%22%20vertex%3D%221%22%20parent%3D%221%22%3E%3CmxGeometry%20x%3D%22244%22%20y%3D%222236%22%20width%3D%2240%22%20height%3D%2220%22%20as%3D%22geometry%22%2F%3E%3C%2FmxCell%3E%3C%2Froot%3E%3C%2FmxGraphModel%3E&lt;/span&gt;" style="text;html=1;strokeColor=none;fillColor=none;align=center;verticalAlign=middle;whiteSpace=wrap;rounded=0;" parent="1" vertex="1">
          <mxGeometry x="55" y="2149" width="40" height="20" as="geometry" />
        </mxCell>
        <mxCell id="KplKHyqBT0ppSrYQ8UM7-13" style="edgeStyle=none;rounded=0;orthogonalLoop=1;jettySize=auto;html=1;exitX=0.5;exitY=1;exitDx=0;exitDy=0;entryX=0.5;entryY=0;entryDx=0;entryDy=0;" parent="1" source="KplKHyqBT0ppSrYQ8UM7-6" target="KplKHyqBT0ppSrYQ8UM7-7" edge="1">
          <mxGeometry relative="1" as="geometry" />
        </mxCell>
        <mxCell id="KplKHyqBT0ppSrYQ8UM7-14" style="edgeStyle=none;rounded=0;orthogonalLoop=1;jettySize=auto;html=1;exitX=0.5;exitY=1;exitDx=0;exitDy=0;entryX=0.5;entryY=0;entryDx=0;entryDy=0;" parent="1" source="KplKHyqBT0ppSrYQ8UM7-6" target="KplKHyqBT0ppSrYQ8UM7-8" edge="1">
          <mxGeometry relative="1" as="geometry" />
        </mxCell>
        <mxCell id="KplKHyqBT0ppSrYQ8UM7-6" value="5" style="text;html=1;strokeColor=none;fillColor=none;align=center;verticalAlign=middle;whiteSpace=wrap;rounded=0;" parent="1" vertex="1">
          <mxGeometry x="151" y="2150" width="40" height="20" as="geometry" />
        </mxCell>
        <mxCell id="KplKHyqBT0ppSrYQ8UM7-7" value="6" style="text;html=1;strokeColor=none;fillColor=none;align=center;verticalAlign=middle;whiteSpace=wrap;rounded=0;" parent="1" vertex="1">
          <mxGeometry x="124" y="2197" width="40" height="20" as="geometry" />
        </mxCell>
        <mxCell id="KplKHyqBT0ppSrYQ8UM7-8" value="7" style="text;html=1;strokeColor=none;fillColor=none;align=center;verticalAlign=middle;whiteSpace=wrap;rounded=0;" parent="1" vertex="1">
          <mxGeometry x="179" y="2197" width="40" height="20" as="geometry" />
        </mxCell>
        <mxCell id="KplKHyqBT0ppSrYQ8UM7-17" value="&lt;font color=&quot;#a680b8&quot;&gt;P&lt;/font&gt;" style="text;html=1;align=center;verticalAlign=middle;resizable=0;points=[];autosize=1;strokeColor=none;fillColor=none;" parent="1" vertex="1">
          <mxGeometry x="222" y="2203" width="18" height="18" as="geometry" />
        </mxCell>
        <mxCell id="KplKHyqBT0ppSrYQ8UM7-19" value="1" style="text;html=1;strokeColor=none;fillColor=none;align=center;verticalAlign=middle;whiteSpace=wrap;rounded=0;" parent="1" vertex="1">
          <mxGeometry x="363" y="2050" width="40" height="20" as="geometry" />
        </mxCell>
        <mxCell id="KplKHyqBT0ppSrYQ8UM7-20" value="" style="endArrow=classic;html=1;exitX=0.5;exitY=1;exitDx=0;exitDy=0;entryX=0.5;entryY=0;entryDx=0;entryDy=0;" parent="1" source="KplKHyqBT0ppSrYQ8UM7-19" target="KplKHyqBT0ppSrYQ8UM7-23" edge="1">
          <mxGeometry width="50" height="50" relative="1" as="geometry">
            <mxPoint x="611" y="2309" as="sourcePoint" />
            <mxPoint x="360" y="2108" as="targetPoint" />
          </mxGeometry>
        </mxCell>
        <mxCell id="KplKHyqBT0ppSrYQ8UM7-21" style="rounded=0;orthogonalLoop=1;jettySize=auto;html=1;exitX=0.5;exitY=1;exitDx=0;exitDy=0;entryX=0.5;entryY=0;entryDx=0;entryDy=0;" parent="1" source="KplKHyqBT0ppSrYQ8UM7-23" target="KplKHyqBT0ppSrYQ8UM7-24" edge="1">
          <mxGeometry relative="1" as="geometry" />
        </mxCell>
        <mxCell id="KplKHyqBT0ppSrYQ8UM7-22" style="edgeStyle=none;rounded=0;orthogonalLoop=1;jettySize=auto;html=1;exitX=0.5;exitY=1;exitDx=0;exitDy=0;entryX=0.5;entryY=0;entryDx=0;entryDy=0;" parent="1" source="KplKHyqBT0ppSrYQ8UM7-23" target="KplKHyqBT0ppSrYQ8UM7-27" edge="1">
          <mxGeometry relative="1" as="geometry" />
        </mxCell>
        <mxCell id="KplKHyqBT0ppSrYQ8UM7-23" value="2" style="text;html=1;strokeColor=none;fillColor=none;align=center;verticalAlign=middle;whiteSpace=wrap;rounded=0;" parent="1" vertex="1">
          <mxGeometry x="405" y="2108" width="40" height="20" as="geometry" />
        </mxCell>
        <mxCell id="KplKHyqBT0ppSrYQ8UM7-24" value="4&lt;span style=&quot;color: rgba(0 , 0 , 0 , 0) ; font-family: monospace ; font-size: 0px&quot;&gt;%3CmxGraphModel%3E%3Croot%3E%3CmxCell%20id%3D%220%22%2F%3E%3CmxCell%20id%3D%221%22%20parent%3D%220%22%2F%3E%3CmxCell%20id%3D%222%22%20value%3D%222%22%20style%3D%22text%3Bhtml%3D1%3BstrokeColor%3Dnone%3BfillColor%3Dnone%3Balign%3Dcenter%3BverticalAlign%3Dmiddle%3BwhiteSpace%3Dwrap%3Brounded%3D0%3B%22%20vertex%3D%221%22%20parent%3D%221%22%3E%3CmxGeometry%20x%3D%22244%22%20y%3D%222236%22%20width%3D%2240%22%20height%3D%2220%22%20as%3D%22geometry%22%2F%3E%3C%2FmxCell%3E%3C%2Froot%3E%3C%2FmxGraphModel%3E&lt;/span&gt;&lt;span style=&quot;color: rgba(0 , 0 , 0 , 0) ; font-family: monospace ; font-size: 0px&quot;&gt;%3CmxGraphModel%3E%3Croot%3E%3CmxCell%20id%3D%220%22%2F%3E%3CmxCell%20id%3D%221%22%20parent%3D%220%22%2F%3E%3CmxCell%20id%3D%222%22%20value%3D%222%22%20style%3D%22text%3Bhtml%3D1%3BstrokeColor%3Dnone%3BfillColor%3Dnone%3Balign%3Dcenter%3BverticalAlign%3Dmiddle%3BwhiteSpace%3Dwrap%3Brounded%3D0%3B%22%20vertex%3D%221%22%20parent%3D%221%22%3E%3CmxGeometry%20x%3D%22244%22%20y%3D%222236%22%20width%3D%2240%22%20height%3D%2220%22%20as%3D%22geometry%22%2F%3E%3C%2FmxCell%3E%3C%2Froot%3E%3C%2FmxGraphModel%3E&lt;/span&gt;" style="text;html=1;strokeColor=none;fillColor=none;align=center;verticalAlign=middle;whiteSpace=wrap;rounded=0;" parent="1" vertex="1">
          <mxGeometry x="357" y="2153" width="40" height="20" as="geometry" />
        </mxCell>
        <mxCell id="KplKHyqBT0ppSrYQ8UM7-25" style="edgeStyle=none;rounded=0;orthogonalLoop=1;jettySize=auto;html=1;exitX=0.5;exitY=1;exitDx=0;exitDy=0;entryX=0.5;entryY=0;entryDx=0;entryDy=0;" parent="1" source="KplKHyqBT0ppSrYQ8UM7-27" target="KplKHyqBT0ppSrYQ8UM7-28" edge="1">
          <mxGeometry relative="1" as="geometry" />
        </mxCell>
        <mxCell id="KplKHyqBT0ppSrYQ8UM7-26" style="edgeStyle=none;rounded=0;orthogonalLoop=1;jettySize=auto;html=1;exitX=0.5;exitY=1;exitDx=0;exitDy=0;entryX=0.5;entryY=0;entryDx=0;entryDy=0;" parent="1" source="KplKHyqBT0ppSrYQ8UM7-27" target="KplKHyqBT0ppSrYQ8UM7-29" edge="1">
          <mxGeometry relative="1" as="geometry" />
        </mxCell>
        <mxCell id="KplKHyqBT0ppSrYQ8UM7-27" value="5" style="text;html=1;strokeColor=none;fillColor=none;align=center;verticalAlign=middle;whiteSpace=wrap;rounded=0;" parent="1" vertex="1">
          <mxGeometry x="432" y="2154" width="40" height="20" as="geometry" />
        </mxCell>
        <mxCell id="KplKHyqBT0ppSrYQ8UM7-28" value="6" style="text;html=1;strokeColor=none;fillColor=none;align=center;verticalAlign=middle;whiteSpace=wrap;rounded=0;" parent="1" vertex="1">
          <mxGeometry x="405" y="2201" width="40" height="20" as="geometry" />
        </mxCell>
        <mxCell id="KplKHyqBT0ppSrYQ8UM7-31" style="edgeStyle=none;rounded=0;orthogonalLoop=1;jettySize=auto;html=1;exitX=0.5;exitY=1;exitDx=0;exitDy=0;entryX=0.5;entryY=0;entryDx=0;entryDy=0;" parent="1" source="KplKHyqBT0ppSrYQ8UM7-29" target="KplKHyqBT0ppSrYQ8UM7-30" edge="1">
          <mxGeometry relative="1" as="geometry">
            <mxPoint x="476" y="2234" as="sourcePoint" />
          </mxGeometry>
        </mxCell>
        <mxCell id="KplKHyqBT0ppSrYQ8UM7-29" value="7" style="text;html=1;strokeColor=none;fillColor=none;align=center;verticalAlign=middle;whiteSpace=wrap;rounded=0;" parent="1" vertex="1">
          <mxGeometry x="460" y="2201" width="40" height="20" as="geometry" />
        </mxCell>
        <mxCell id="KplKHyqBT0ppSrYQ8UM7-30" value="3" style="text;html=1;strokeColor=none;fillColor=none;align=center;verticalAlign=middle;whiteSpace=wrap;rounded=0;" parent="1" vertex="1">
          <mxGeometry x="489" y="2252" width="36" height="17" as="geometry" />
        </mxCell>
        <mxCell id="KplKHyqBT0ppSrYQ8UM7-33" value="9" style="text;html=1;strokeColor=none;fillColor=none;align=center;verticalAlign=middle;whiteSpace=wrap;rounded=0;" parent="1" vertex="1">
          <mxGeometry x="88" y="2194" width="40" height="20" as="geometry" />
        </mxCell>
        <mxCell id="KplKHyqBT0ppSrYQ8UM7-35" style="edgeStyle=none;rounded=0;orthogonalLoop=1;jettySize=auto;html=1;exitX=0.5;exitY=1;exitDx=0;exitDy=0;entryX=0.5;entryY=0;entryDx=0;entryDy=0;" parent="1" source="KplKHyqBT0ppSrYQ8UM7-24" target="KplKHyqBT0ppSrYQ8UM7-36" edge="1">
          <mxGeometry relative="1" as="geometry">
            <mxPoint x="366" y="2174" as="sourcePoint" />
          </mxGeometry>
        </mxCell>
        <mxCell id="KplKHyqBT0ppSrYQ8UM7-36" value="9" style="text;html=1;strokeColor=none;fillColor=none;align=center;verticalAlign=middle;whiteSpace=wrap;rounded=0;" parent="1" vertex="1">
          <mxGeometry x="379" y="2199" width="40" height="20" as="geometry" />
        </mxCell>
        <mxCell id="KplKHyqBT0ppSrYQ8UM7-37" value="&lt;font color=&quot;#a680b8&quot;&gt;P&lt;/font&gt;" style="text;html=1;align=center;verticalAlign=middle;resizable=0;points=[];autosize=1;strokeColor=none;fillColor=none;" parent="1" vertex="1">
          <mxGeometry x="361" y="2198" width="18" height="18" as="geometry" />
        </mxCell>
        <mxCell id="KplKHyqBT0ppSrYQ8UM7-38" value="1" style="text;html=1;strokeColor=none;fillColor=none;align=center;verticalAlign=middle;whiteSpace=wrap;rounded=0;" parent="1" vertex="1">
          <mxGeometry x="560" y="2046" width="40" height="20" as="geometry" />
        </mxCell>
        <mxCell id="KplKHyqBT0ppSrYQ8UM7-39" value="" style="endArrow=classic;html=1;exitX=0.5;exitY=1;exitDx=0;exitDy=0;entryX=0.5;entryY=0;entryDx=0;entryDy=0;" parent="1" source="KplKHyqBT0ppSrYQ8UM7-38" target="KplKHyqBT0ppSrYQ8UM7-42" edge="1">
          <mxGeometry width="50" height="50" relative="1" as="geometry">
            <mxPoint x="808" y="2305" as="sourcePoint" />
            <mxPoint x="557" y="2104" as="targetPoint" />
          </mxGeometry>
        </mxCell>
        <mxCell id="KplKHyqBT0ppSrYQ8UM7-40" style="rounded=0;orthogonalLoop=1;jettySize=auto;html=1;exitX=0.5;exitY=1;exitDx=0;exitDy=0;entryX=0.5;entryY=0;entryDx=0;entryDy=0;" parent="1" source="KplKHyqBT0ppSrYQ8UM7-42" target="KplKHyqBT0ppSrYQ8UM7-43" edge="1">
          <mxGeometry relative="1" as="geometry" />
        </mxCell>
        <mxCell id="KplKHyqBT0ppSrYQ8UM7-42" value="2" style="text;html=1;strokeColor=none;fillColor=none;align=center;verticalAlign=middle;whiteSpace=wrap;rounded=0;" parent="1" vertex="1">
          <mxGeometry x="602" y="2104" width="40" height="20" as="geometry" />
        </mxCell>
        <mxCell id="KplKHyqBT0ppSrYQ8UM7-43" value="4&lt;span style=&quot;color: rgba(0 , 0 , 0 , 0) ; font-family: monospace ; font-size: 0px&quot;&gt;%3CmxGraphModel%3E%3Croot%3E%3CmxCell%20id%3D%220%22%2F%3E%3CmxCell%20id%3D%221%22%20parent%3D%220%22%2F%3E%3CmxCell%20id%3D%222%22%20value%3D%222%22%20style%3D%22text%3Bhtml%3D1%3BstrokeColor%3Dnone%3BfillColor%3Dnone%3Balign%3Dcenter%3BverticalAlign%3Dmiddle%3BwhiteSpace%3Dwrap%3Brounded%3D0%3B%22%20vertex%3D%221%22%20parent%3D%221%22%3E%3CmxGeometry%20x%3D%22244%22%20y%3D%222236%22%20width%3D%2240%22%20height%3D%2220%22%20as%3D%22geometry%22%2F%3E%3C%2FmxCell%3E%3C%2Froot%3E%3C%2FmxGraphModel%3E&lt;/span&gt;&lt;span style=&quot;color: rgba(0 , 0 , 0 , 0) ; font-family: monospace ; font-size: 0px&quot;&gt;%3CmxGraphModel%3E%3Croot%3E%3CmxCell%20id%3D%220%22%2F%3E%3CmxCell%20id%3D%221%22%20parent%3D%220%22%2F%3E%3CmxCell%20id%3D%222%22%20value%3D%222%22%20style%3D%22text%3Bhtml%3D1%3BstrokeColor%3Dnone%3BfillColor%3Dnone%3Balign%3Dcenter%3BverticalAlign%3Dmiddle%3BwhiteSpace%3Dwrap%3Brounded%3D0%3B%22%20vertex%3D%221%22%20parent%3D%221%22%3E%3CmxGeometry%20x%3D%22244%22%20y%3D%222236%22%20width%3D%2240%22%20height%3D%2220%22%20as%3D%22geometry%22%2F%3E%3C%2FmxCell%3E%3C%2Froot%3E%3C%2FmxGraphModel%3E&lt;/span&gt;" style="text;html=1;strokeColor=none;fillColor=none;align=center;verticalAlign=middle;whiteSpace=wrap;rounded=0;" parent="1" vertex="1">
          <mxGeometry x="632" y="2149" width="40" height="20" as="geometry" />
        </mxCell>
        <mxCell id="KplKHyqBT0ppSrYQ8UM7-47" value="6" style="text;html=1;strokeColor=none;fillColor=none;align=center;verticalAlign=middle;whiteSpace=wrap;rounded=0;" parent="1" vertex="1">
          <mxGeometry x="679" y="2270" width="40" height="20" as="geometry" />
        </mxCell>
        <mxCell id="KplKHyqBT0ppSrYQ8UM7-51" style="edgeStyle=none;rounded=0;orthogonalLoop=1;jettySize=auto;html=1;exitX=0.5;exitY=1;exitDx=0;exitDy=0;entryX=0.5;entryY=0;entryDx=0;entryDy=0;" parent="1" source="KplKHyqBT0ppSrYQ8UM7-43" target="KplKHyqBT0ppSrYQ8UM7-52" edge="1">
          <mxGeometry relative="1" as="geometry">
            <mxPoint x="641" y="2170" as="sourcePoint" />
          </mxGeometry>
        </mxCell>
        <mxCell id="KplKHyqBT0ppSrYQ8UM7-61" style="edgeStyle=none;rounded=0;orthogonalLoop=1;jettySize=auto;html=1;exitX=0.5;exitY=1;exitDx=0;exitDy=0;entryX=0.5;entryY=0;entryDx=0;entryDy=0;" parent="1" source="KplKHyqBT0ppSrYQ8UM7-52" target="KplKHyqBT0ppSrYQ8UM7-56" edge="1">
          <mxGeometry relative="1" as="geometry" />
        </mxCell>
        <mxCell id="KplKHyqBT0ppSrYQ8UM7-52" value="9" style="text;html=1;strokeColor=none;fillColor=none;align=center;verticalAlign=middle;whiteSpace=wrap;rounded=0;" parent="1" vertex="1">
          <mxGeometry x="666" y="2186" width="40" height="20" as="geometry" />
        </mxCell>
        <mxCell id="KplKHyqBT0ppSrYQ8UM7-53" value="&lt;font color=&quot;#a680b8&quot;&gt;P&lt;/font&gt;" style="text;html=1;align=center;verticalAlign=middle;resizable=0;points=[];autosize=1;strokeColor=none;fillColor=none;" parent="1" vertex="1">
          <mxGeometry x="636" y="2194" width="18" height="18" as="geometry" />
        </mxCell>
        <mxCell id="KplKHyqBT0ppSrYQ8UM7-54" style="edgeStyle=none;rounded=0;orthogonalLoop=1;jettySize=auto;html=1;exitX=0.5;exitY=1;exitDx=0;exitDy=0;entryX=0.5;entryY=0;entryDx=0;entryDy=0;" parent="1" source="KplKHyqBT0ppSrYQ8UM7-56" edge="1">
          <mxGeometry relative="1" as="geometry">
            <mxPoint x="699" y="2270" as="targetPoint" />
          </mxGeometry>
        </mxCell>
        <mxCell id="KplKHyqBT0ppSrYQ8UM7-55" style="edgeStyle=none;rounded=0;orthogonalLoop=1;jettySize=auto;html=1;exitX=0.5;exitY=1;exitDx=0;exitDy=0;entryX=0.5;entryY=0;entryDx=0;entryDy=0;" parent="1" source="KplKHyqBT0ppSrYQ8UM7-56" target="KplKHyqBT0ppSrYQ8UM7-58" edge="1">
          <mxGeometry relative="1" as="geometry" />
        </mxCell>
        <mxCell id="KplKHyqBT0ppSrYQ8UM7-56" value="5" style="text;html=1;strokeColor=none;fillColor=none;align=center;verticalAlign=middle;whiteSpace=wrap;rounded=0;" parent="1" vertex="1">
          <mxGeometry x="706" y="2223" width="40" height="20" as="geometry" />
        </mxCell>
        <mxCell id="KplKHyqBT0ppSrYQ8UM7-57" style="edgeStyle=none;rounded=0;orthogonalLoop=1;jettySize=auto;html=1;exitX=0.5;exitY=1;exitDx=0;exitDy=0;entryX=0.5;entryY=0;entryDx=0;entryDy=0;" parent="1" source="KplKHyqBT0ppSrYQ8UM7-58" target="KplKHyqBT0ppSrYQ8UM7-59" edge="1">
          <mxGeometry relative="1" as="geometry">
            <mxPoint x="750" y="2303" as="sourcePoint" />
          </mxGeometry>
        </mxCell>
        <mxCell id="KplKHyqBT0ppSrYQ8UM7-58" value="7" style="text;html=1;strokeColor=none;fillColor=none;align=center;verticalAlign=middle;whiteSpace=wrap;rounded=0;" parent="1" vertex="1">
          <mxGeometry x="734" y="2270" width="40" height="20" as="geometry" />
        </mxCell>
        <mxCell id="KplKHyqBT0ppSrYQ8UM7-59" value="3" style="text;html=1;strokeColor=none;fillColor=none;align=center;verticalAlign=middle;whiteSpace=wrap;rounded=0;" parent="1" vertex="1">
          <mxGeometry x="763" y="2321" width="36" height="17" as="geometry" />
        </mxCell>
        <mxCell id="rXGQywuT-Q4WPOWzWep9-1" value="" style="ellipse;whiteSpace=wrap;html=1;" vertex="1" parent="1">
          <mxGeometry x="468" y="2487" width="120" height="80" as="geometry" />
        </mxCell>
        <mxCell id="rXGQywuT-Q4WPOWzWep9-3" style="edgeStyle=orthogonalEdgeStyle;rounded=0;orthogonalLoop=1;jettySize=auto;html=1;exitX=0.5;exitY=0;exitDx=0;exitDy=0;endArrow=none;endFill=0;" edge="1" parent="1" source="rXGQywuT-Q4WPOWzWep9-2">
          <mxGeometry relative="1" as="geometry">
            <mxPoint x="22.000030517578125" y="2697" as="targetPoint" />
            <Array as="points">
              <mxPoint x="217" y="2697" />
              <mxPoint x="217" y="2697" />
            </Array>
          </mxGeometry>
        </mxCell>
        <mxCell id="rXGQywuT-Q4WPOWzWep9-2" value="" style="ellipse;whiteSpace=wrap;html=1;aspect=fixed;" vertex="1" parent="1">
          <mxGeometry x="238" y="2697" width="155" height="155" as="geometry" />
        </mxCell>
        <mxCell id="rXGQywuT-Q4WPOWzWep9-4" value="" style="triangle;whiteSpace=wrap;html=1;rotation=-207;" vertex="1" parent="1">
          <mxGeometry x="385" y="2715" width="51" height="38" as="geometry" />
        </mxCell>
        <mxCell id="rXGQywuT-Q4WPOWzWep9-5" value="slow and fast first meet&lt;br&gt;slow: k steps [green]&lt;br&gt;fast: 2k steps [orange]&lt;br&gt;=&amp;gt; the size of the circle will be k&lt;br&gt;&lt;br&gt;suppose the steps between the intesection point and the meeting point is m [yellow]&lt;br&gt;&lt;br&gt;then if slow point put to the head, its distance to the intersection point will be k-m&amp;nbsp;&lt;br&gt;&lt;br&gt;and the fast point to the intersection point will also be k-m" style="text;html=1;strokeColor=none;fillColor=none;align=center;verticalAlign=middle;whiteSpace=wrap;rounded=0;" vertex="1" parent="1">
          <mxGeometry x="449" y="2687" width="260" height="116" as="geometry" />
        </mxCell>
        <mxCell id="rXGQywuT-Q4WPOWzWep9-7" value="" style="shape=stencil(lZrZchs3EEW/hq8o7EA/O85/uMpyxIoiuWQ5y9+np2jQ5gXR0H2jqHOHPQOg1zmlD98eP319OEX/7e315c+Hf86f3x5P6bdTjOfnx4fX85t+OqWPp/Thy8vrwx+vL9+fP1/+/vrpII9Pf738fVzh34vOO+8PUfT/wRe/X/Cn8/MNnhqFdyHw4EqicGFsj64wtieXIoFnFwKBF+crgVfnmatXJ8zVmxPm6t31QuDiOrNMwbvGXD4E16jr6z5g7jboRqCun53vHN8ovrjMbMxA7h3lS2b4Rl6/ucxsTuWF8grdJep5kts5iEuU/eKEWS/9d6HcWnCBsV/5zqwv6zcPx0nZo56TCRL3XOePC6z4KQgli6+u4X4r3eDb7E+kGXx38fb5h7GhVrwg37LBi6u39kQX0ppP3sUCfIkmD/snuhYMPrjsgRebh/OeXLDi9OTPk8vG+qY0Hsfg1WEb66V8y8B34/mnjP6huGo9z4zrW8cDu88XzJKaC5b91YUIvBSTh/3fXbPsby7eni8ZqdCK7xH4ZN1vx0Rsy7fG8OIidX09X5ngs7qzxPEJn+eGb9T1A2mPuifqfoOrneOF4iO3H5SvheMhed7wyUVmvylfPcdDdr7hM/rzLV+p6xcsGbd8ptZrite2P8nqLm/vt5vxJU/5qu3flIf8pw8HfJ/vGF/Ugdl8FeCDEV+y4Pra/lz5jvGiGXzxuF5bXtAekw8Yrzd8dF44vlL26Pml7JnygQ2f0T9seagHN3xxibK/YP624Su5H9pIp97NN4rvI717Jz/Fd5uvU0tsy1PrVXX/V4af4t2GT86TfKXsydgP2fJC2aPxgtkPdepvbHnK/ygv1PpO9eCG784z51H5Qtkj2Jnc8pWxp/lRfrybb8z+acFFJn61qR+44SPn/9u13H0nr/Ums17KV+p+tXxl4p3ymVrfjP3bDV9G+vJunoovyldqvxUuP2mV3G9Tv3TLd8r+RtrTsL7Y8sLE09axv7flG7W+pL9SnooXjcyHO+nflKfieyfz5x5wBrflG2VP5PpFymemflEe+j92fdQn/2nXaz2hPXb9qHzHerYa/cM+zXeCHxn+SgANQRV064lmjMAhuGw9ojw6zldBHEngfcFUM6igWiO/gk2CcF2WlQCyPhU0o83dJ7cb8mg8rQTgd8M101wJwPGGMlKF+4KGmUFQI62bnlK/YzhmrfTUC1VBt1Z6ai6Ebi9cx2h/zK+se5jc9TFfsRauY/w4JlLWOggWxPFa4q8EkPFGrdktk9TF3564mEeScVcgk4+PZVR1KwEEnaMLbyycTFVi7OaYQgKOuY5BunEeZIoLKYzKaCWARkmK5iRBphcuUjJdt0yhJOUx3FwJoNZN12pwJQBnn6rpKmXqDqVmjltkClfHQMI2Cc5DktGhvy9I43wNwdGit7bG9GpKjqMnuBIUEGiQtLZGQieQ8+jSrAQwxMrVdAKSp5tuI69fCfKtb80yBhkrAYSsYg+KZSp0ij2ZlakTXuzRqQoiCOxZpQpgFlTyeHtiJSggKPZ5KOiXij1+VAG0Q0obCe99QZ1u2k7gpOLAuKjns5xxxZuuYczYV4IGgji+WQngpmseb13cFzRMWmuxPV9D713rCGIrAaQ/tY9G50oAfYtqZwIq6NC48OM37wvmTta1178SYGtE/bllUp96j2nkyisBeI2jnWGbhN3lYr7OIX0qtzeZwDTv0Qq52jcNfklLxmj/Aixcv85YVwIIWT3ZR3Sq0fsmTgu+5PMzuV4JIEk88kzrxE2vZYm3T9zUN9D8xjxxmobCYDXZJ25+UyCPWeJKAGH38LbWSsvYzFdBM5N1FUCcPja88ViDn8Yhv3z1Q6Iffr5f/OX89HR5PfnX/+P7yPrV5V3m9PF/);fillColor=none;strokeColor=#82b366;" vertex="1" parent="1">
          <mxGeometry x="28.4000244140625" y="2677.3999633789062" width="358" height="51.59999084472656" as="geometry" />
        </mxCell>
        <mxCell id="rXGQywuT-Q4WPOWzWep9-9" value="" style="shape=stencil(lV3bkh23DfyafZ0iCV6fHec/XGU5UkWRXLJy+/sAWc9ZbWOmcfi20nbvGXJA3MHzIj/98fGX3z+8lPTH929f//7h359+/f7xRf7yUsqnLx8/fPv0XX96kZ9f5Kffvn778LdvX//55dfXf//+iyHtp398/Zf9hf+88tKRkpFK+u/rf+Sj5v//x19f4Z8/fXkHt1+9g+fB4LW+g6djLQbvC+H0YaYAfJC/ro+aAN4Lg/+5EW/wPxdzAx+4VGn38HLkAvDSGbwNgOd5D5cj4cMksjNy1InwxOALH4bBqxcCDp87D9MOwbfK4b1vwdcOvB9lZ6n9aHvwgceDwceRdp59HHVnI8cx2gZ8nnriWXjHw8fg60g7MrOOtgPPyWuOAN/xcFN89sogwLcdQchlTxIU37bWW461I8dZDtl6Hjnm1vPUo+wIm+K3DlZWnbO13o5GNsSPLfkcm/I8j4qGk+LXITvyabZsZ71qO9OOLlH8lryp9Rw72sTs4c7+qMnaUm5m4nbkTa3Q1vtVQ7FlE81SbO3nOObWfl5pc+KOqH52HgP1dpI3u8yZEpU3fF/MV1P8wv1krqCovCG+CcGLXy/zTEXlzTm+zF9T/YbrZY6yqH5DeZts/9VLwvO7SFQgHf3NfBqoa/zwQUpm+z/O7X7DF7b/E/VPPhXeHb7vBE2yjtz38B33h+Gr07chHs5vgM9or0P83MKXQ/B9BXiItQK84HkJ8XXt4WfZwVfUtyG+bO1nPdrW+1X9sPX3G/qT+XQY7/BOfhrRJ4ofKM+d6JPa/fkdRJ8ovuL+TKL/FT/xeRbRP3Xgeddon+3nwOi+HIXoZ8WvBXhh++n8vXJUtj/zmPg8je3POsoEfGf7s45RAD+Ifm7pVPdv+En0s+LB3wjwzv8M8RXfb4CfuD8U/3j9T+MHvl+KV324tV452tZ65Vj4file9dvW81T0h0P83v63I2/tf0N7EeLn1no76v8QvycPY/PvO/8/wM9DtvZnYoIxwLt8Dsf3tCf/ih876+0Z/bEQ33f0Wy9H2nm/iq8751HxY2s/BdNvIV525E3xfWs/Ze+8d9U/W++3ensd4NfWehumYkP83DlfXf0flP/F8s7D20dWxlE8JNkfAnKNnxi/C60qKR70p9D4vS/0f9Sgkf0Z6UgZ8Cy+VnzD9U7y/MP5G3IKyB2+vT+/9fwDd3jwDyuNl0fB/amHEH9V8bD/9RTYa7yc4fcPeCI/iofzVWm8oHjIz1QaLwznb9SzmHGHb7ifi/irigf/p1H/fzR8nocDcodviC9sfxrqQw3I2P64Mlaj8YLiQT83Gi8ofgngO9vPgfnnEN9xvRQ/z3Tk0/iG6w3wc+vvLy8PAb5trXedZfU3/CD6cCb0h9vpAN7hK+KZfVE85Cf7maC9xrv8bT837A4viK9kfxQP/t5DwK/xBeWnU/2veMjPPBLwd3jwh8fZhnGNl6MivhL9MF1B/2HAr/Guoj9OhXeHB3mbZ4HuGt9Oc/6GZ/KseIh3HgfuGt/xfa0zILjDgz+2zhd4hwd/fp0CfoeHfItVnNmGjtOe/EAQtuKBEZjVqNmSx2lBH4TMC/YDa3L5kTW+JkzXSpTPNNsdAbOyhb+2iWrFCttsl5bLI8oZad0RIFGTH6mSOwJmZit1jZWAqe5KfVclgG3NjTqLK2HzQW7UO1MCLlrPE3kkJUC4oQTmTyihuU9gBkQJoADyOEv0dwSwyEoY5D2s7FLek+rgldHnVQJTqkrAI7rOtpM7Alh9JTS26IwtO1aHJXppuTq7FSbZIxWX+M5n6eWOAJXGtz66OwKmAsopXXcEzLUJ1RpLsNnHojn24gStlYUrnNAhfdNovVoJyxFYgXX5hEanEZESMCMwaAlCCVCiMR+AiUbFGnGZ1AlbzSXRFo1ilYBZrnVMTgAzLYnGLUqAhlPJXM10TNRJ4Vqjo+cvQkNBJYArZs0BbA0dhU/aKSx3BCh+SafdGEqA7IOMM568JgwML2SeDuwdAbSGVczZGgY2WtbEz4OLIGumJSolQAm4Fm5QBuYErYrMdmmiXqqVerlKwKxL44psYphUO1fGE/s46jgjpzsCJlLmudF3BFAzdXHdOrE00XivjhIwV8ObP9ZCT6Dxaq0SoDus8XTlcuXUxvNxSgDXofEEkhKgQabxiFsJoCobD1mVAL5Gm2dS9Y4AutWqQEw0lkuqrNPE3BHAm+mPAYJbAqQNeISSk5umsFIKEdcrhlBFc8WoVPldMbiHf8XoNGN4xRg0h3/NYFnwKwZ3qa8Ya3cdg/vI1wwW7V8xMs3PXDEKtcHXDGYtrhhCo2V/PEY9+06fPICj8Tb9hbp5NFqI8TphdNrJZIT3ynwMmqo3QkYC9XudIhwzWgNkXsbi8fhCozoTLQcoAcz2zGfcdmtf3r84y3hy7Q8mz1KYzKg+dP2DIFTVejs/Kw9NJ85kWJaRu09QFHtLGz7pb80erQHaAOfg0jowln3Lut26sfBIoWeNi178iA6MNOfi/paLDizFxSMciD8sAcXMdsfuL8sn8YAFYiglsPqeRWnvxduyPXwN0MC2Mu2QWw1168q05L4angdLrQTB70ACDVgaFr2W8NyOm5JZj7ruHQEykW+Jj9ucAjxSpeZ9VbfoSitZPi9iD8lUZUUlYBvNDpCg5luNu7GCxSmVLqrIBLtdVxDWCZbXLEJnolGwn/Mt4L5N+wkSaCyb0RNYk+cUspPWSXuULcG7kMDcuJUwNLXIkElrcudhcX/JtaGY5WZ1pOVEY/Eqz3KFrUVFYy5MQphDRAy71WDcotlMtxJwFiDx6aI5XC4/ZkCmMGR0zF4+wcAZl5iBUwERo7k5lJhRsHAYMFzv7BMMrEvEDNlcR3WVuogh6Ic/waib70PQzIeMcub8Nhg42xQzsBIVMbKrIcYMrNjFDOjpeYKxez4SzvU+wWibUpLQF4wY1n2z91TK6NsMV+8PGVjgjBguN/sEo+xphuE6zZ9gQDUuMDijY+Y+MGnDe//cyg5354QZft6vB2WjwLWwxItzXljuZggWzC0YZS1+4nzzQeuuo2DPqgVybA2u2GxREyegX/uoAF4TkvsE7v1bX6+LL2hjZnIvjoc8/SE5PxBYt4YSYFRjFdoP0qeLkXgkqYTmQk/WreG7t4PwubtWoSCi7z6NsfiiBw4YqFvJ4m3rcIf806AHqLusxOw076EEsNuT1127KwVPoQWR3lwOrXDh821zPA9oZYP3nzAWLaP2htI6Ju/sb2jjVduyAkqvmBIbjc8CVDxxqjyZbu0V285GoUVOJYBnY/37bNEVu2ZM8fBPSO8/ofPOHz8Qo4eWdbxbEQpKX7w4YyM6HQmsJ1cJ4GnZCeEEcMd7o1O7fspICayBRAlg2HvlZ1qwhTEo3umv4U133mBoBOhELrQ63QUDIxsuCwhQIuNV0e4u+1ECKwb0clGoZbkbI7hSMPM1/Lxa4w3M3SWsGu/YVgIkDoOCuRGgD4HPaCgBe/j50IsRoA+BTx11Fzm2YMzKXQPV+Ny4zRnCLvFB/ItP4DeBXKyBX93id6lyZ92/uDppjcUIrqclEm/oaeGutJ04eKTO1+CUQND54/WSXfHAREMwY1N55t1r7yr8iDr7UMumBaq8AmK6Gh4p03DArGhDQmFOouvbrCnyZsCw18AzrpiPlUWry0ZwrXNUCVTs9pbAla6uOW9uOljCy6C9YtpTeKFVCfCmpdMBFPMq3ysyaTQvbn5rRgKb4DBXBHapcp+vnS1gD4LQkol31kX4oht6xlL4EW1odoW3BViE8l68g/5ZdQkhKSWJTgJZ0JSQwGYTrK8JWtwXnWX1cVyZtH6tBLzsJIiBurs9Y3DPeLjrUQZf9MAai91EygfAQRmXzu30wBNnI6FbOQElsG4LDWCgSFkqN4rT9cTzdiUl4GxCEClO7DIuQrtb+8T8tN08yF7cwvA4GGbo7uZGG91nj+SaiUrhunVhfsku/yFrGO6ysmCCQwngVdr1SGx8Obk5F94t5xODSmDNqiO7E5ej5CaeuMxzxm7kv2Ra5VcCqplM80uWb4XzkGjjgbUcChI6e6TiBmMST9D64Z5Ekwj+IoJgomm44Z68qBVVAtiHvHjOWLDPLC86XO0vL4gI1VUZQ4KfLAsIffcTcPgzILgbD2KCH3YLCFi3DgjdlcZDAtYKQ8LmI7nmupiA46UhAevPAWHi1UkxAYc/QwLOcgaEhRmsmFD23sPafdNumCEgTHfDeKBm7IoF96bpzHtyg8SLegL+koVAtyoBbxnk2tuuWVhIYPZhFndvF59HVQLEQIX35k9/81WimZMpGKEEVlQJEMeVzC9/cImQwLBPl7s31yFopkmOwGSpYt678AEGf2FE4SURa+Z2g8S0Mc1f8cdduNncmC/3Kq1dvCCB+a1KwHCAe8Z2jUVHAj3TruIXhAPThcdBwGFFzYIEFtL4qy+C6Wl/90UQZc2BjZpBHGd3X7jAj17S4K6PLpULn/sujMIHW6xtfyCBTYDP6W6kbLQ0ZX3+GQlU+ObFUDq79FsJeOJ4TsB6R13WgSU353IBOJ/mUQL43pbX4LdroPDxcrO/LEMJdAIj4UxtCQaM3HeHRJP4ya1h8Ns1MtYU7bof3kuN1zUGM0/Z3b876S0ny10YrgQ6IlvcGiafAC9uDZNWyy4umgiuH3BVyyCTuFyVpvBuiuXq09EFB+4e8yAb6mcLlECl1VU4JPHJ44ounATDahUPkKRoxqO5RdPzUF0amyeZV0N/SRLtpvBXWQj/HrTlLkx3iXL94e0r3X779Pnz6zfC/fh7/Ao4/a/Xr4+Tn/8H);fillColor=none;strokeColor=#FF9933;" vertex="1" parent="1">
          <mxGeometry x="25.20001220703125" y="2707.7999572753906" width="362.4000244140625" height="113.60000610351562" as="geometry" />
        </mxCell>
        <mxCell id="rXGQywuT-Q4WPOWzWep9-10" value="" style="shape=stencil(lVjLUhtBDPwaX1XzkEaaMyH/QRUmuEIwZSCPv48cZ21Ga7fZ27K0vDOSutUzq3rz+nj3sl6V9Pq2235f/9rcvz2u6pdVKZvnx/Vu8+ZPq3q7qjcP29362277/nx/+Pvlbo/cP/3Y/tz/wu9DXKKU9kEl/Tm8YGL+9+LrAf60eUbwQr0huNQAr3oZnqlIgOeC4I0DPIG1F+I8wD0eLKYSpwCv6TKcSSI858twIR3hiXq9DFdKJcAVbNWo1gAXUKZOTQIclilNRT/hcwd4L6MGfAKpzJXKIjxTjeuBeKEa9wvxjUpMJ8QrlbwEb1RiM0B8n9L9Ofy+PLYE7627JJ97mi7Jp1OrLMK7Ji3CC7VF62/UY7+hfnZ6cawX4ovzqy+hY3VhivVF4lAryZifTGwAL8SjmmDhrBr5W0hAfqrF/dZJj85Lp6dDA97A73OZpPVzQ4trHEMC68s8iesJj9SWhWz8/Qa1nxtZCXg0iVjJxv26wIC5yEbNAh7Vi3vkl02EPj+70vT5E14Bv8T1ZORLpwL6X0rUt4wJLPNZjRkjHDs0ZzK05RYp6UMK5siiBvmUamBJzSd6IDHuolZi12Vc5uabDgaoUwJ91xrp2EdXhK7ZzO9hj9V6dBJXDKXORpNzH+1BZ7PpCvnV6xpcZYPGT3kyqccAXAeVmYk2qHceYGMdKq6DusCMWapY4VVjHXymIEqrd04IELgkS7EOPlXQkmx2GKhYZaxEV8c4S1anqXEMwFkyHzNjezPOks0GLQsUMnOnOcoM4+YzjXVg3HweEFSDcfOZm51xSYLdkfVIIMF2xAOCtgoWge7zJ3wBGwAPCANRsLb2HDktOmnhpQAZ6yAdyr0H2LjphrPUvb2DaXBbA1yAB4RTXRN8CqyUwpJ0OjJfCggHcNdzWAeemvloTPB88ICgS4qtYXenNmZJr1S6xfZWg2a1axQywzLTZ+7NCk6rM27ctF1pbxfj8AWsGh5Qx8KZYsb12N52pb37VNej5cP3IR4QvEbHhwwPCATq2AnkNLu86pgQ5yLw0DoXYZClZyI+vPof4g+n+7uHzdPT4frv4//jfZ+/OtwV1tu/);fillColor=none;strokeColor=#FFD966;" vertex="1" parent="1">
          <mxGeometry x="310.800048828125" y="2666.199951171875" width="91.199951171875" height="54.000030517578125" as="geometry" />
        </mxCell>
      </root>
    </mxGraphModel>
  </diagram>
</mxfile>
